<svg xmlns="http://www.w3.org/2000/svg" viewBox="0 0 304.44 103.75"><defs><style>.cls-1,.cls-2{fill:#fff;}.cls-2{font-size:20px;font-family:Avenir-Light, Avenir;}</style></defs><title>logo_white</title><g id="Lag_1" data-name="Lag 1"><path class="cls-1" d="M91.61,35c4-2.24,12.69-7.76,7.3-13.17C95.23,18.11,88.11,19.24,83.57,20A107.55,107.55,0,0,0,41.24,36.2c-3.84,2.55-12.91,7.51-12.37,13.17.46,4.89,7.38,5.53,11.1,5.81A103.92,103.92,0,0,0,89,46.46c1.85-.81.16-1.72-1.13-1.15a99.75,99.75,0,0,1-36.12,8.37c-5.17.21-12.33,1-17.07-1.45-8.11-4.13,3.28-11.75,7-14.33A99.36,99.36,0,0,1,71.17,24.21c5.58-1.58,11.6-3.2,17.43-3.29,3,0,7.84.38,8.84,4,1.22,4.41-4.49,7.5-7.62,9.26-1.7,1,.86,1.34,1.79.82Z"/><path class="cls-1" d="M94.32,39.1a45.41,45.41,0,0,0-17.69,1.11c-3.07.83-10.49,2.61-11.53,6.32s4.2,3.11,6.21,2.75a27.19,27.19,0,0,0,13.87-7.11c.74-.7-1.26-.54-1.47-.48-2.35.6-9.12,2.44-7.17,6.27s8.23,1.93,11,.77C100,43.6,111.49,34.32,120.12,24.09c.72-.85-1.59-.47-1.85-.36a116.72,116.72,0,0,0-18.59,9.69C95,36.46,88,40.47,85.17,45.5c-2.43,4.33,1.84,6.81,5.75,6.95,4.84.18,8.81-2.53,11.87-6.05.67-.77-2.14-.47-2.65.12-2.48,2.85-6.74,6.39-10.81,3.67-2.42-1.63-2.32-3.27-.84-5.65,2-3.28,6.23-5.85,9.36-8.11a107.59,107.59,0,0,1,21.46-11.85l-1.85-.36A88.3,88.3,0,0,1,101.53,39a97.11,97.11,0,0,1-9.46,6,31,31,0,0,1-4.46,2.34q-7.48,4.1-8.42-1.94A7.5,7.5,0,0,1,84,42.78l-1.47-.48c-2.45,2.32-6.33,5.28-9.86,5.53-11.08.77.33-5.27,2.88-6.09a38.94,38.94,0,0,1,16.93-1.32c.72.09,3.35-1.13,1.84-1.32Z"/><path class="cls-1" d="M199.39,29,169,48.8c-1.25.81,1.65.61,2.25.22l30.37-19.77c1.25-.81-1.65-.61-2.25-.22Z"/><path class="cls-1" d="M170.84,31.49c7.46-3.22,16.53-5.57,24.72-4.42,1.71.24,4.14.73,5,2.58,1.86,4.19-6.94,6.52-9.37,6.91A24,24,0,0,1,178.48,35l-1.38,1.4A58.25,58.25,0,0,1,201,38.71a44.17,44.17,0,0,1,8.61,3.58c3,1.73,5.89,4.17,1.17,7.15-1.42.9-4.38,1.44-6.08,1.87-7.67,2-46.63,6.87-43.1-9,.22-1-2.68-.51-2.89.4C156.41,53,172,54.42,178.7,54.93c10.51.8,21.76-.27,31.71-3.9,2.08-.76,5.51-2,5.91-4.6.59-3.93-5.55-6.13-8.21-7.26A61.35,61.35,0,0,0,177.54,35c-.4,0-2.49,1-1.38,1.4a27.86,27.86,0,0,0,16.47,1.3c3.46-.79,11.43-3.26,10.86-8.11s-9.21-4.22-12.41-4.08a60.18,60.18,0,0,0-21.35,5c-1.86.8-.15,1.59,1.11,1.05Z"/><path class="cls-1" d="M204.93,43.86l-15.5,8.42L192,52a21.22,21.22,0,0,1,16.52-9.06c4-.25,13.54.6,12.89,6.48-.33,3-5.77,4.83-6.2,1.37-.26-2.1,5-3.59,6.93-4.57l16-8-2.27.25a13.69,13.69,0,0,1-6.91,10.65l2.52-.27q2.42-1.52.07.77l-2.26,2.74c-.33.4,2.06,0,2.25-.13l43.58-19.34-1.92-.14c-7.81,4.63-15.8,9-23.45,13.91C246.16,49,240,53.93,244.2,58.56c2.5,2.74,7.2,2.45,10.42,1.47,5.21-1.59,8-5.86,10.46-10.46.15-.29-2.47-.17-2.85.54-2.48,4.65-7.07,12.11-13.6,8.73-5.66-2.93-1.59-8.78,2.07-11.34,7.79-5.43,16.48-9.88,24.65-14.71,1.22-.72-1.57-.3-1.92-.14L229.86,52l2.25-.13,4.51-5.48c.13-.15-.14-.25-.23-.26-3-.46-6.46.31-7.8,3.32-.26.59,2.3-.13,2.52-.27,4.26-2.65,7.1-6.33,7.62-11.43,0-.47-2.11.17-2.27.25L211.55,50.37c-.07,0-.76.33-.63.53,2.27,3.35,6.95,3.88,10.41,2,5.59-3.1,2.47-8.39-2.34-10-10.32-3.39-23.74.64-29.89,9.66-.32.46,2.3-.15,2.52-.27l15.5-8.42c1.18-.64-1.69-.28-2.2,0Z"/><path class="cls-1" d="M223.57,34.79c-1.52.08-3.7.73-4.3,2.32-.54,1.42.71,2.65,2,3a3.1,3.1,0,0,0,2-.35c.26-.13,1-.68.33-.84a2,2,0,0,1-1.54-1.43,1.38,1.38,0,0,1,.09-.92c.07-.15.24-.29.3-.43s.33-.07-.13,0a2.85,2.85,0,0,0,1.93-.71c.38-.51-.33-.58-.71-.56Z"/><path class="cls-1" d="M82.72,44.41h34.65c1.15,0,3.05-1.73,1.1-1.73H83.83c-1.15,0-3.05,1.73-1.1,1.73Z"/><path class="cls-1" d="M101.59,43.45,95.8,54.64c-.7,1.34,2,.91,2.54.36A40,40,0,0,1,115.71,44.2L114,43.55l-2.46,7.7c-.36,1.13,2,.58,2.37.34a53.66,53.66,0,0,0,13.69-12.34l-2.81.09a15,15,0,0,1-3.66,9.79l2.54.36a16.63,16.63,0,0,1,10.21-7.74l-1.39-1.1c-3.71,3-2.72,8.08,2,9.27,3.74,1,8.76-.93,9.76-4.87.21-.83-1.28-.76-1.67-.64-3.47,1.06-7.62,4.44-4.92,8.41,3.25,4.78,11.44,3,15.95,2.09,1.79-.37,1.33-2-.43-1.61-3.08.64-5.82,1.15-8.93.39C140.64,52.82,136.73,48,143,46l-1.67-.64q-6.91,5-8.27-.33a3.61,3.61,0,0,1,1.78-3.81c1.08-.86-.76-1.29-1.39-1.1-5.25,1.59-9.74,4.34-12.5,9.2-.72,1.27,2,1,2.54.36A16.58,16.58,0,0,0,127.74,39c0-1.4-2.35-.5-2.81.09a50.21,50.21,0,0,1-12.8,11.49l2.37.34,2.46-7.7c.26-.83-1.32-.76-1.67-.64A44.38,44.38,0,0,0,96,54.42l2.54.36,5.79-11.19c.67-1.3-2.24-1.07-2.72-.14Z"/><path class="cls-1" d="M115.88,35.42l-3,1.88c-.09.06-.55.38-.26.52l2.55,1.25A2.67,2.67,0,0,0,117,38.9c.12,0,1.31-.59.87-.81l-2.55-1.25-.26.52,3-1.88c.46-.29.37-.59-.16-.62a3.84,3.84,0,0,0-2,.55Z"/><text class="cls-2" transform="translate(99 80.87)">KUNSTNER</text></g></svg>
